<svg xmlns="http://www.w3.org/2000/svg" viewBox="0 0 1200 960" width="1200" height="960">
  <style>
    text { font-family: 'WenQuanYi Zen Hei', 'JetBrains Mono', 'SF Mono', 'Consolas', monospace; }
  </style>
  <defs>
    <marker id="arr-cyan" markerWidth="8" markerHeight="6" refX="7" refY="3" orient="auto">
      <polygon points="0 0, 8 3, 0 6" fill="#22d3ee"/>
    </marker>
    <marker id="arr-violet" markerWidth="8" markerHeight="6" refX="7" refY="3" orient="auto">
      <polygon points="0 0, 8 3, 0 6" fill="#a78bfa"/>
    </marker>
    <marker id="arr-emerald" markerWidth="8" markerHeight="6" refX="7" refY="3" orient="auto">
      <polygon points="0 0, 8 3, 0 6" fill="#34d399"/>
    </marker>
    <marker id="arr-orange" markerWidth="8" markerHeight="6" refX="7" refY="3" orient="auto">
      <polygon points="0 0, 8 3, 0 6" fill="#fb923c"/>
    </marker>
    <marker id="arr-amber" markerWidth="8" markerHeight="6" refX="7" refY="3" orient="auto">
      <polygon points="0 0, 8 3, 0 6" fill="#fbbf24"/>
    </marker>
    <marker id="arr-rose" markerWidth="8" markerHeight="6" refX="7" refY="3" orient="auto">
      <polygon points="0 0, 8 3, 0 6" fill="#fb7185"/>
    </marker>
    <marker id="arr-slate" markerWidth="8" markerHeight="6" refX="7" refY="3" orient="auto">
      <polygon points="0 0, 8 3, 0 6" fill="#64748b"/>
    </marker>
    <marker id="arr-red" markerWidth="8" markerHeight="6" refX="7" refY="3" orient="auto">
      <polygon points="0 0, 8 3, 0 6" fill="#f87171"/>
    </marker>
    <pattern id="grid" width="40" height="40" patternUnits="userSpaceOnUse">
      <path d="M 40 0 L 0 0 0 40" fill="none" stroke="#1e293b" stroke-width="0.5"/>
    </pattern>
  </defs>

  <!-- Background -->
  <rect width="1200" height="960" fill="#020617"/>
  <rect width="1200" height="960" fill="url(#grid)"/>

  <!-- Header -->
  <rect x="0" y="0" width="1200" height="52" fill="#0a1628"/>
  <text x="32" y="32" font-size="18" font-weight="700" fill="#ffffff" letter-spacing="0.02em">Wiki-KB Internal Architecture</text>
  <text x="32" y="46" font-size="10" fill="#64748b" dy="4">MCP Server Components · Data Flow · Storage Layout · Safety Net</text>

  <!-- ===== MCP Client ===== -->
  <rect x="460" y="70" width="280" height="44" rx="22" fill="#0c1824" stroke="#22d3ee" stroke-width="1.5"/>
  <text x="600" y="97" text-anchor="middle" font-size="13" font-weight="600" fill="#22d3ee">MCP Client (AI Agent)</text>
  <text x="600" y="112" text-anchor="middle" font-size="9" fill="#64748b">StreamableHTTP · :8764</text>

  <!-- Arrow: MCP Client → Server -->
  <line x1="600" y1="114" x2="600" y2="160" stroke="#22d3ee" stroke-width="1.5" marker-end="url(#arr-cyan)"/>

  <!-- ===== MCP SERVER BOX ===== -->
  <rect x="32" y="162" width="1136" height="380" rx="10" fill="#030d1f" stroke="#334155" stroke-width="1.5"/>
  <!-- Header bar -->
  <rect x="32" y="162" width="1136" height="34" rx="10" fill="#0c1824" stroke="#334155" stroke-width="1.5"/>
  <rect x="32" y="188" width="1136" height="8" fill="#0c1824"/>
  <text x="52" y="185" font-size="13" font-weight="600" fill="#22d3ee">Wiki-KB MCP Server</text>
  <text x="52" y="199" font-size="10" fill="#475569">FastMCP · 15 Tools · Path traversal protection · 24h session</text>

  <!-- ===== Wiki Operations (8 tools) ===== -->
  <rect x="52" y="210" width="250" height="320" rx="8" fill="#0f172a" stroke="#a78bfa" stroke-width="1.5"/>
  <text x="72" y="234" font-size="11" font-weight="600" fill="#a78bfa">Wiki Operations</text>
  <text x="292" y="234" text-anchor="end" font-size="9" fill="#475569">8 tools</text>

  <rect x="68" y="246" width="218" height="26" rx="4" fill="#0c1824" stroke="#334155" stroke-width="1"/>
  <text x="177" y="263" text-anchor="middle" font-size="9.5" fill="#94a3b8">wiki_search(query, type)</text>

  <rect x="68" y="278" width="218" height="26" rx="4" fill="#0c1824" stroke="#334155" stroke-width="1"/>
  <text x="177" y="295" text-anchor="middle" font-size="9.5" fill="#94a3b8">wiki_get(page_id)</text>

  <rect x="68" y="310" width="218" height="26" rx="4" fill="#052e16" stroke="#34d399" stroke-width="1.5"/>
  <text x="177" y="327" text-anchor="middle" font-size="9.5" fill="#34d399" font-weight="600">wiki_create(name, type)</text>

  <rect x="68" y="342" width="218" height="26" rx="4" fill="#052e16" stroke="#34d399" stroke-width="1.5"/>
  <text x="177" y="359" text-anchor="middle" font-size="9.5" fill="#34d399" font-weight="600">wiki_update(page_id, section)</text>

  <rect x="68" y="374" width="218" height="26" rx="4" fill="#052e16" stroke="#34d399" stroke-width="1.5"/>
  <text x="177" y="391" text-anchor="middle" font-size="9.5" fill="#34d399" font-weight="600">wiki_append_timeline(event)</text>

  <rect x="68" y="406" width="218" height="26" rx="4" fill="#0c1824" stroke="#334155" stroke-width="1"/>
  <text x="177" y="423" text-anchor="middle" font-size="9.5" fill="#94a3b8">wiki_list(type, status)</text>

  <rect x="68" y="438" width="218" height="26" rx="4" fill="#1c1207" stroke="#fbbf24" stroke-width="1.5"/>
  <text x="177" y="455" text-anchor="middle" font-size="9.5" fill="#fbbf24" font-weight="600">wiki_review(page_id)</text>

  <rect x="68" y="470" width="218" height="26" rx="4" fill="#0c1824" stroke="#334155" stroke-width="1"/>
  <text x="177" y="487" text-anchor="middle" font-size="9.5" fill="#94a3b8">wiki_health()</text>

  <!-- auto-reg arrow -->
  <text x="305" y="325" text-anchor="middle" font-size="8" fill="#fb923c">auto-reg</text>
  <line x1="286" y1="323" x2="314" y2="323" stroke="#fb923c" stroke-width="1" marker-end="url(#arr-orange)" stroke-dasharray="3,2"/>

  <!-- ===== Entity Registry (4 tools) ===== -->
  <rect x="322" y="210" width="250" height="320" rx="8" fill="#0f172a" stroke="#34d399" stroke-width="1.5"/>
  <text x="342" y="234" font-size="11" font-weight="600" fill="#34d399">Entity Registry</text>
  <text x="562" y="234" text-anchor="end" font-size="9" fill="#475569">4 tools</text>

  <rect x="338" y="246" width="218" height="26" rx="4" fill="#0c1824" stroke="#334155" stroke-width="1"/>
  <text x="447" y="263" text-anchor="middle" font-size="9.5" fill="#94a3b8">entity_resolve(name)</text>

  <rect x="338" y="278" width="218" height="26" rx="4" fill="#052e16" stroke="#34d399" stroke-width="1.5"/>
  <text x="447" y="295" text-anchor="middle" font-size="9.5" fill="#34d399" font-weight="600">entity_register(name, type)</text>

  <rect x="338" y="310" width="218" height="26" rx="4" fill="#0c1824" stroke="#334155" stroke-width="1"/>
  <text x="447" y="327" text-anchor="middle" font-size="9.5" fill="#94a3b8">entity_list(type)</text>

  <rect x="338" y="342" width="218" height="26" rx="4" fill="#1c1207" stroke="#fbbf24" stroke-width="1.5"/>
  <text x="447" y="359" text-anchor="middle" font-size="9.5" fill="#fbbf24" font-weight="600">entity_merge(id1, id2)</text>

  <text x="354" y="390" font-size="9" fill="#475569">registry.json — unique IDs</text>
  <text x="354" y="406" font-size="9" fill="#475569">alias resolution · fuzzy match</text>
  <text x="354" y="422" font-size="9" fill="#475569">dedup detection (0.6+ sim)</text>

  <!-- ===== Safety Net (3 tools) — NEW ===== -->
  <rect x="592" y="210" width="260" height="200" rx="8" fill="#0f172a" stroke="#f87171" stroke-width="1.5"/>
  <text x="612" y="234" font-size="11" font-weight="600" fill="#f87171">🔒 Safety Net</text>
  <text x="842" y="234" text-anchor="end" font-size="9" fill="#475569">3 tools</text>

  <rect x="608" y="246" width="228" height="26" rx="4" fill="#052e16" stroke="#34d399" stroke-width="1.5"/>
  <text x="722" y="263" text-anchor="middle" font-size="9.5" fill="#34d399" font-weight="600">wiki_undo(n=1)</text>

  <rect x="608" y="278" width="228" height="26" rx="4" fill="#0c1824" stroke="#334155" stroke-width="1"/>
  <text x="722" y="295" text-anchor="middle" font-size="9.5" fill="#94a3b8">wiki_log(limit=10)</text>

  <text x="624" y="328" font-size="9" fill="#64748b" font-weight="600" letter-spacing="0.05em">INFRASTRUCTURE</text>
  <text x="624" y="346" font-size="9.5" fill="#94a3b8">Content Hash (SHA256)</text>
  <text x="624" y="362" font-size="9.5" fill="#94a3b8">Rejection Feedback Loop</text>
  <text x="624" y="378" font-size="9.5" fill="#94a3b8">Auto Git Commit</text>
  <text x="624" y="394" font-size="9.5" fill="#94a3b8">.gitignore: logs, registry</text>

  <!-- ===== Search & System (2 tools) ===== -->
  <rect x="592" y="420" width="260" height="110" rx="8" fill="#0f172a" stroke="#fb923c" stroke-width="1.5"/>
  <text x="612" y="444" font-size="11" font-weight="600" fill="#fb923c">Search &amp; System</text>
  <text x="842" y="444" text-anchor="end" font-size="9" fill="#475569">2 tools</text>

  <rect x="608" y="456" width="228" height="26" rx="4" fill="#1c1207" stroke="#fb923c" stroke-width="1.5"/>
  <text x="722" y="473" text-anchor="middle" font-size="9.5" fill="#fb923c" font-weight="600">wiki_search() → OpenViking</text>

  <rect x="608" y="488" width="228" height="26" rx="4" fill="#0c1824" stroke="#334155" stroke-width="1"/>
  <text x="722" y="505" text-anchor="middle" font-size="9.5" fill="#94a3b8">wiki_stats()</text>

  <!-- ===== Internal Modules ===== -->
  <rect x="872" y="210" width="280" height="320" rx="8" fill="#0f172a" stroke="#64748b" stroke-width="1"/>
  <text x="892" y="234" font-size="11" font-weight="600" fill="#94a3b8">Internal Modules</text>

  <text x="892" y="260" font-size="9.5" fill="#94a3b8">wiki_config.py · centralized config</text>
  <text x="892" y="278" font-size="9.5" fill="#94a3b8">entity_registry.py · registry + aliases</text>
  <text x="892" y="296" font-size="9.5" fill="#94a3b8">_compute_body_hash() · SHA256</text>
  <text x="892" y="314" font-size="9.5" fill="#94a3b8">_git_init() / _git_commit()</text>
  <text x="892" y="332" font-size="9.5" fill="#94a3b8">_store_rejection() / _load_feedback()</text>
  <text x="892" y="350" font-size="9.5" fill="#94a3b8">_FileLock · atomic write safety</text>

  <text x="892" y="380" font-size="9" fill="#64748b" font-weight="600" letter-spacing="0.05em">SECURITY</text>
  <text x="892" y="398" font-size="9.5" fill="#94a3b8">Auth check · optional API key</text>
  <text x="892" y="414" font-size="9.5" fill="#94a3b8">Path validation · ALLOWED_SUBDIRS</text>
  <text x="892" y="430" font-size="9.5" fill="#94a3b8">24h session timeout</text>
  <text x="892" y="446" font-size="9.5" fill="#94a3b8">yaml.safe_load() frontmatter</text>

  <text x="892" y="476" font-size="9" fill="#64748b" font-weight="600" letter-spacing="0.05em">DATA FLOW</text>
  <text x="892" y="494" font-size="9.5" fill="#34d399">write → hash check → commit</text>
  <text x="892" y="510" font-size="9.5" fill="#fbbf24">review fail → store feedback</text>

  <!-- OpenViking badge -->
  <rect x="1102" y="420" width="90" height="24" rx="4" fill="#030d1f" stroke="#22d3ee" stroke-width="1"/>
  <text x="1147" y="436" text-anchor="middle" font-size="10" fill="#22d3ee">OpenViking</text>

  <!-- ===== STORAGE ===== -->
  <rect x="32" y="558" width="1136" height="160" rx="10" fill="#030d1f" stroke="#334155" stroke-width="1.5"/>
  <rect x="32" y="558" width="1136" height="32" rx="10" fill="#0c1824" stroke="#334155" stroke-width="1.5"/>
  <rect x="32" y="582" width="1136" height="8" fill="#0c1824"/>
  <text x="52" y="578" font-size="12" font-weight="600" fill="#a78bfa" letter-spacing="0.06em">STORAGE</text>
  <text x="128" y="578" font-size="10" fill="#475569">./wiki (bind mount) → /data (container)</text>

  <!-- Pages -->
  <rect x="52" y="600" width="480" height="108" rx="6" fill="#0f172a" stroke="#a78bfa" stroke-width="1"/>
  <text x="72" y="620" font-size="11" font-weight="600" fill="#a78bfa">Markdown Pages</text>
  <rect x="72" y="630" width="70" height="20" rx="3" fill="#0c1824" stroke="#334155" stroke-width="1"/>
  <text x="107" y="644" text-anchor="middle" font-size="8.5" fill="#94a3b8">concepts/</text>
  <rect x="148" y="630" width="70" height="20" rx="3" fill="#0c1824" stroke="#334155" stroke-width="1"/>
  <text x="183" y="644" text-anchor="middle" font-size="8.5" fill="#94a3b8">entities/</text>
  <rect x="224" y="630" width="70" height="20" rx="3" fill="#0c1824" stroke="#334155" stroke-width="1"/>
  <text x="259" y="644" text-anchor="middle" font-size="8.5" fill="#94a3b8">people/</text>
  <rect x="300" y="630" width="70" height="20" rx="3" fill="#0c1824" stroke="#334155" stroke-width="1"/>
  <text x="335" y="644" text-anchor="middle" font-size="8.5" fill="#94a3b8">projects/</text>
  <rect x="376" y="630" width="70" height="20" rx="3" fill="#0c1824" stroke="#334155" stroke-width="1"/>
  <text x="411" y="644" text-anchor="middle" font-size="8.5" fill="#94a3b8">meetings/</text>
  <rect x="72" y="656" width="70" height="20" rx="3" fill="#0c1824" stroke="#334155" stroke-width="1"/>
  <text x="107" y="670" text-anchor="middle" font-size="8.5" fill="#94a3b8">ideas/</text>
  <rect x="148" y="656" width="70" height="20" rx="3" fill="#0c1824" stroke="#334155" stroke-width="1"/>
  <text x="183" y="670" text-anchor="middle" font-size="8.5" fill="#94a3b8">comparisons/</text>
  <rect x="224" y="656" width="70" height="20" rx="3" fill="#0c1824" stroke="#334155" stroke-width="1"/>
  <text x="259" y="670" text-anchor="middle" font-size="8.5" fill="#94a3b8">queries/</text>
  <rect x="300" y="656" width="70" height="20" rx="3" fill="#0c1824" stroke="#334155" stroke-width="1"/>
  <text x="335" y="670" text-anchor="middle" font-size="8.5" fill="#94a3b8">tools/</text>
  <text x="72" y="695" font-size="9" fill="#475569">SCHEMA v3 · Compiled Truth + Timeline · 9 types · content_hash</text>

  <!-- Metadata -->
  <rect x="552" y="600" width="230" height="108" rx="6" fill="#0f172a" stroke="#fbbf24" stroke-width="1"/>
  <text x="572" y="620" font-size="11" font-weight="600" fill="#fbbf24">Metadata</text>
  <rect x="572" y="632" width="190" height="24" rx="4" fill="#1c1207" stroke="#fbbf24" stroke-width="1"/>
  <text x="667" y="648" text-anchor="middle" font-size="10" fill="#fbbf24">registry.json</text>
  <rect x="572" y="664" width="190" height="24" rx="4" fill="#1c1207" stroke="#a78bfa" stroke-width="1"/>
  <text x="667" y="680" text-anchor="middle" font-size="10" fill="#a78bfa">graph.json</text>

  <!-- Safety Net Storage — NEW -->
  <rect x="802" y="600" width="170" height="108" rx="6" fill="#0f172a" stroke="#f87171" stroke-width="1"/>
  <text x="822" y="620" font-size="11" font-weight="600" fill="#f87171">Safety Net Data</text>
  <rect x="822" y="632" width="130" height="24" rx="4" fill="#1c1207" stroke="#f87171" stroke-width="1"/>
  <text x="887" y="648" text-anchor="middle" font-size="9.5" fill="#f87171">.git/ (history)</text>
  <rect x="822" y="664" width="130" height="24" rx="4" fill="#1c1207" stroke="#fb923c" stroke-width="1"/>
  <text x="887" y="680" text-anchor="middle" font-size="9.5" fill="#fb923c">.wiki_feedback.json</text>

  <!-- Source Materials -->
  <rect x="992" y="600" width="156" height="108" rx="6" fill="#0f172a" stroke="#64748b" stroke-width="1"/>
  <text x="1012" y="620" font-size="11" font-weight="600" fill="#94a3b8">Source</text>
  <text x="1012" y="636" font-size="8.5" fill="#475569">src/ · not indexed</text>
  <rect x="1012" y="644" width="50" height="18" rx="3" fill="#0c1824" stroke="#334155" stroke-width="1"/>
  <text x="1037" y="656" text-anchor="middle" font-size="8" fill="#64748b">images/</text>
  <rect x="1068" y="644" width="50" height="18" rx="3" fill="#0c1824" stroke="#334155" stroke-width="1"/>
  <text x="1093" y="656" text-anchor="middle" font-size="8" fill="#64748b">pdfs/</text>
  <rect x="1012" y="668" width="50" height="18" rx="3" fill="#0c1824" stroke="#334155" stroke-width="1"/>
  <text x="1037" y="680" text-anchor="middle" font-size="8" fill="#64748b">audio/</text>
  <rect x="1068" y="668" width="50" height="18" rx="3" fill="#0c1824" stroke="#334155" stroke-width="1"/>
  <text x="1093" y="680" text-anchor="middle" font-size="8" fill="#64748b">videos/</text>

  <!-- ===== AUTOMATION PIPELINE ===== -->
  <rect x="32" y="736" width="1136" height="100" rx="10" fill="#030d1f" stroke="#fb923c" stroke-width="1"/>
  <rect x="32" y="736" width="1136" height="28" rx="10" fill="#1c1207" stroke="#fb923c" stroke-width="1"/>
  <rect x="32" y="756" width="1136" height="8" fill="#1c1207"/>
  <text x="52" y="754" font-size="11" font-weight="600" fill="#fb923c" letter-spacing="0.06em">AUTOMATION PIPELINE</text>
  <text x="200" y="754" font-size="9" fill="#475569">cron scripts · scheduled tasks</text>

  <rect x="68" y="774" width="240" height="52" rx="6" fill="#0f172a" stroke="#a78bfa" stroke-width="1.5"/>
  <text x="188" y="794" text-anchor="middle" font-size="11" fill="#a78bfa" font-weight="600">auto_index.py</text>
  <text x="188" y="810" text-anchor="middle" font-size="9" fill="#475569">graph.json + OpenViking sync</text>
  <line x1="308" y1="800" x2="328" y2="800" stroke="#fb923c" stroke-width="1" marker-end="url(#arr-orange)"/>

  <rect x="328" y="774" width="240" height="52" rx="6" fill="#0f172a" stroke="#fbbf24" stroke-width="1.5"/>
  <text x="448" y="794" text-anchor="middle" font-size="11" fill="#fbbf24" font-weight="600">dream_cycle.py</text>
  <text x="448" y="810" text-anchor="middle" font-size="9" fill="#475569">LLM audit · contradiction detection</text>
  <line x1="568" y1="800" x2="588" y2="800" stroke="#fb923c" stroke-width="1" marker-end="url(#arr-orange)"/>

  <rect x="588" y="774" width="240" height="52" rx="6" fill="#0f172a" stroke="#34d399" stroke-width="1.5"/>
  <text x="708" y="794" text-anchor="middle" font-size="11" fill="#34d399" font-weight="600">memory_to_wiki.py</text>
  <text x="708" y="810" text-anchor="middle" font-size="9" fill="#475569">OpenViking → Wiki sync</text>
  <line x1="828" y1="800" x2="848" y2="800" stroke="#fb923c" stroke-width="1" marker-end="url(#arr-orange)"/>

  <rect x="848" y="774" width="240" height="52" rx="6" fill="#0f172a" stroke="#22d3ee" stroke-width="1.5"/>
  <text x="968" y="794" text-anchor="middle" font-size="11" fill="#22d3ee" font-weight="600">wiki-to-notion.py</text>
  <text x="968" y="810" text-anchor="middle" font-size="9" fill="#475569">Wiki ↔ NAS ↔ Notion sync</text>

  <!-- ===== LEGEND ===== -->
  <rect x="960" y="68" width="200" height="112" rx="6" fill="#0a1628" stroke="#334155" stroke-width="1"/>
  <text x="976" y="88" font-size="9" font-weight="700" fill="#64748b" letter-spacing="0.08em">LEGEND</text>
  <rect x="976" y="98" width="12" height="12" rx="2" fill="#052e16" stroke="#34d399" stroke-width="1.5"/>
  <text x="994" y="109" font-size="9" fill="#64748b">Write operation</text>
  <rect x="976" y="118" width="12" height="12" rx="2" fill="#0c1824" stroke="#334155" stroke-width="1"/>
  <text x="994" y="129" font-size="9" fill="#64748b">Read / query</text>
  <rect x="976" y="138" width="12" height="12" rx="2" fill="#1c1207" stroke="#fbbf24" stroke-width="1.5"/>
  <text x="994" y="149" font-size="9" fill="#64748b">Caution / review</text>
  <rect x="976" y="158" width="12" height="12" rx="2" fill="#0f172a" stroke="#f87171" stroke-width="1.5"/>
  <text x="994" y="169" font-size="9" fill="#64748b">Safety net / protection</text>
  <line x1="976" y1="186" x2="998" y2="186" stroke="#22d3ee" stroke-width="1.5" stroke-dasharray="4,3"/>
  <text x="1004" y="190" font-size="9" fill="#64748b">External (optional)</text>

  <!-- ===== VERSION TAG ===== -->
  <rect x="920" y="850" width="260" height="30" rx="6" fill="#0a1628" stroke="#334155" stroke-width="1"/>
  <text x="1050" y="870" text-anchor="middle" font-size="10" fill="#64748b">v2026.04.17 · P13: Content Hash + Feedback + Git</text>

</svg>
